<?xml version="1.0" encoding="utf-8"?>
<!-- Generator: Adobe Illustrator 16.0.0, SVG Export Plug-In . SVG Version: 6.00 Build 0)  -->
<!DOCTYPE svg PUBLIC "-//W3C//DTD SVG 1.1//EN" "http://www.w3.org/Graphics/SVG/1.1/DTD/svg11.dtd">
<svg version="1.1" id="Layer_1" xmlns="http://www.w3.org/2000/svg" xmlns:xlink="http://www.w3.org/1999/xlink" x="0px" y="0px"
	 width="825.021px" height="196.25px" viewBox="0 0 825.021 196.25" enable-background="new 0 0 825.021 196.25"
	 xml:space="preserve">
<g id="h06cjp.tif">
	<g>
		<path fill-rule="evenodd" clip-rule="evenodd" fill="#464646" d="M101,0c4.377,0.654,8.759,1.271,13.129,1.967
			c42.386,6.75,75.649,41.103,80.921,83.554c6.199,49.914-24.348,95.119-72.741,107.649C66.295,207.674,8.934,169.323,1.263,112.259
			C0.936,109.826,0.425,107.419,0,105c0-4.666,0-9.333,0-14c0.355-1.23,0.912-2.439,1.036-3.692
			c4.19-42.565,38.455-78.765,80.79-85.278C86.543,1.304,91.275,0.674,96,0C97.667,0,99.333,0,101,0z M98.265,172.412
			c40.902-0.064,73.839-33.195,73.954-74.136c0.105-37.755-29.79-74.009-74.149-73.931C55.698,24.42,24.315,57.955,24.027,98.473
			C23.738,139.158,57.532,172.477,98.265,172.412z"/>
		<path fill-rule="evenodd" clip-rule="evenodd" fill="#464646" d="M454.586,50.377c0,1.926,0,3.707,0,5.486
			c0,17.992-0.006,35.983,0.002,53.974c0.006,10.941,1.94,13.029,13.013,13.494c5.132,0.217,10.281,0.037,16.084,0.037
			c0-24.465,0-48.518,0-72.925c10.572,0,20.481,0,30.761,0c0,31.825,0,63.685,0,95.489c-0.43,0.207-0.725,0.474-1.018,0.472
			c-21.286-0.149-42.624,1.53-63.824-1.552c-3.576-0.52-7.137-1.653-10.507-2.998c-10.474-4.18-15.562-12.548-15.743-23.351
			c-0.373-22.314-0.086-44.639-0.053-66.96c0-0.292,0.241-0.583,0.501-1.167C433.746,50.377,443.822,50.377,454.586,50.377z"/>
		<path fill-rule="evenodd" clip-rule="evenodd" fill="#464646" d="M704.082,102.826c10.905,6.982,13.375,16.715,12.774,27.856
			c-0.269,4.976-0.046,9.977-0.046,15.435c-9.561,0-18.896,0-28.729,0c0-5.639,0.061-11.101-0.027-16.561
			c-0.038-2.314-0.235-4.65-0.624-6.932c-0.858-5.036-4.039-7.902-8.972-8.758c-3.091-0.537-6.231-0.784-9.691-1.203
			c0-5.793,0-11.543,0-17.844c2.734-0.25,5.509-0.345,8.228-0.781c8.104-1.298,12.187-7.745,9.117-14.28
			c-1.814-3.865-5.167-5.645-9.192-5.907c-4.129-0.269-8.288-0.06-13.221-0.06c0,24.114,0,48.125,0,72.457
			c-10.014,0-19.243,0-28.879,0c0-32.048,0-63.895,0-96.167c8.76,0,17.232-0.125,25.699,0.035
			c8.643,0.164,17.377-0.065,25.886,1.163c5.741,0.829,11.636,3.092,16.64,6.088c16.519,9.893,16.943,33.364,3.701,43.441
			C706.088,101.311,705.428,101.807,704.082,102.826z"/>
		<path fill-rule="evenodd" clip-rule="evenodd" fill="#464646" d="M569.084,112.725c0-6.163,0-11.785,0-17.974
			c1.906-0.15,3.698-0.102,5.4-0.469c2.729-0.588,5.582-1.078,8.052-2.286c3.665-1.793,5.161-5.574,4.538-9.705
			c-0.656-4.349-3.768-7.709-8.78-8.254c-4.577-0.497-9.25-0.105-14.482-0.105c0,23.925,0,47.806,0,72.167
			c-9.777,0-18.966,0-28.546,0c0-31.767,0-63.48,0-95.508c1.031-0.161,2.131-0.481,3.23-0.481
			c13.486-0.001,26.975-0.105,40.457,0.131c9.308,0.163,17.997,2.556,25.82,7.975c13.766,9.535,15.537,31.804,2.666,42.106
			c-0.774,0.62-1.469,1.339-3.423,3.138c1.333,0.693,2.616,1.133,3.628,1.922c6.357,4.953,9.186,11.638,9.248,19.569
			c0.056,6.973,0.012,13.946,0.012,21.273c-9.611,0-18.844,0-28.715,0c0-3.886,0.002-7.652-0.002-11.419
			c-0.002-2.664,0.057-5.33-0.036-7.992c-0.302-8.574-3.327-12.015-11.735-13.319C574.149,113.144,571.849,113.008,569.084,112.725z
			"/>
		<path fill-rule="evenodd" clip-rule="evenodd" fill="#464646" d="M824.84,50.435c0,12.742,0.504,25.076-0.172,37.346
			c-0.469,8.509-5.727,14.83-13.148,18.878c-4.201,2.291-8.82,3.815-13.942,5.978c0,10.761,0,22.004,0,33.588
			c-11.681,0-22.745,0-34.498,0c0-11.295,0-22.518,0-33.824c-3.276-1.005-6.011-1.682-8.628-2.673
			c-13.295-5.031-21.682-13.57-21.09-29.663c0.301-8.151,0.041-16.322,0.063-24.484c0.005-1.631,0.141-3.263,0.244-5.499
			c5.901,0,11.507,0,17.112,0c5.479,0,10.957,0,17,0c0.125,2.046,0.316,3.797,0.323,5.549c0.034,7.995-0.062,15.992,0.04,23.986
			c0.122,9.688,7.117,14.372,16.281,11.022c3.816-1.395,5.707-4.205,5.743-8.959c0.064-8.661,0.02-17.323,0.021-25.985
			c0-1.637,0-3.274,0-5.26C801.781,50.435,813.004,50.435,824.84,50.435z"/>
		<path fill-rule="evenodd" clip-rule="evenodd" fill="#464646" d="M273.195,111.775c0,11.956,0,22.908,0,34.332
			c-10.483,0-20.506,0-31.052,0c-0.088-1.959-0.25-3.892-0.251-5.825c-0.019-19.167-0.019-38.333-0.009-57.5
			c0.009-16.785,7.581-26.702,23.837-31.095c2.56-0.692,5.22-1.396,7.839-1.417c15.821-0.131,31.645-0.065,47.859-0.065
			c0,7.372,0,14.614,0,22.475c-1.56,0.073-3.312,0.222-5.064,0.226c-10.5,0.022-21-0.009-31.5,0.031
			c-1.822,0.007-3.686,0.07-5.455,0.455c-4.256,0.925-5.916,2.951-6.25,7.224c-0.052,0.663-0.021,1.333-0.028,2
			c-0.081,7.259-0.081,7.262,7.351,7.264c11.667,0.003,23.333,0.001,35,0.001c1.803,0,3.606,0,5.76,0c0,7.431,0,14.348,0,21.895
			C305.42,111.775,289.693,111.775,273.195,111.775z"/>
		<path fill-rule="evenodd" clip-rule="evenodd" fill="#464646" d="M341.037,50.366c10.04,0,20.104,0,30.774,0
			c0,1.943,0,3.717,0,5.491c0,18.309-0.019,36.617,0.008,54.926c0.015,9.555,2.321,12.05,12.01,12.463
			c6.479,0.275,12.978,0.129,19.467,0.166c1.802,0.012,3.604,0.002,5.847,0.002c0,7.799,0,15.143,0,22.287
			c-0.348,0.315-0.466,0.52-0.592,0.524c-15.116,0.544-30.291,1.41-45.169-2.091c-15.443-3.633-22.382-11.455-22.793-27.213
			c-0.563-21.622-0.127-43.27-0.096-64.907C340.494,51.552,340.79,51.09,341.037,50.366z"/>
		<path fill-rule="evenodd" clip-rule="evenodd" fill="#464646" d="M160.12,98.544c1.21,30.044-24.162,62.058-62.243,62.036
			c-34.442-0.021-61.838-27.802-61.793-62.608c0.044-34.395,27.869-61.989,62.62-61.745C136.029,36.49,161.41,68.081,160.12,98.544z
			 M142.931,80.23c-5.015-17.269-25.596-30.663-45.206-30.104C75.997,50.747,56.813,66.4,52.021,87.418
			c-4.924,21.598,5.29,43.525,24.938,53.84c18.091,9.496,42.01,5.234,53.317-7.143c-2.026,0.93-3.306,1.55-4.61,2.111
			c-12.874,5.543-25.325,4.654-37.154-2.816c-11.139-7.035-16.622-18.624-14.154-30.642c2.696-13.133,10.898-21.469,23.92-24.605
			c4.428-1.066,9.126-1.008,13.701-1.464c-10.551-4.017-21.146-3.821-32.082,0.183C93.327,56.209,123.684,57.756,142.931,80.23z"/>
	</g>
</g>
</svg>
