<?xml version="1.0" encoding="utf-8"?>
<!-- Generator: Adobe Illustrator 16.0.0, SVG Export Plug-In . SVG Version: 6.00 Build 0)  -->
<!DOCTYPE svg PUBLIC "-//W3C//DTD SVG 1.1//EN" "http://www.w3.org/Graphics/SVG/1.1/DTD/svg11.dtd">
<svg version="1.1" id="Layer_1" xmlns="http://www.w3.org/2000/svg" xmlns:xlink="http://www.w3.org/1999/xlink" x="0px" y="0px"
	 width="825.021px" height="196.25px" viewBox="0 0 825.021 196.25" enable-background="new 0 0 825.021 196.25"
	 xml:space="preserve">
<g id="h06cjp.tif">
	<g>
		<path d="M101,0c4.377,0.654,8.759,1.271,13.129,1.967c42.386,6.75,75.649,41.104,80.921,83.554
			c6.199,49.915-24.348,95.12-72.741,107.649C66.295,207.674,8.934,169.323,1.263,112.259C0.936,109.826,0.425,107.419,0,105
			c0-4.666,0-9.333,0-14c0.355-1.23,0.912-2.439,1.036-3.692C5.226,44.743,39.491,8.543,81.826,2.03C86.543,1.304,91.275,0.674,96,0
			C97.667,0,99.333,0,101,0z M98.265,172.412c40.902-0.064,73.839-33.195,73.954-74.136c0.105-37.755-29.79-74.009-74.149-73.931
			c-42.372,0.075-73.755,33.61-74.043,74.128C23.738,139.158,57.532,172.477,98.265,172.412z"/>
		<path d="M454.586,50.377c0,1.926,0,3.707,0,5.486c0,17.992-0.006,35.982,0.002,53.974c0.006,10.941,1.939,13.029,13.014,13.494
			c5.131,0.217,10.28,0.037,16.084,0.037c0-24.465,0-48.518,0-72.925c10.571,0,20.48,0,30.76,0c0,31.825,0,63.685,0,95.488
			c-0.43,0.207-0.725,0.475-1.018,0.473c-21.285-0.149-42.623,1.529-63.824-1.553c-3.576-0.52-7.137-1.652-10.506-2.998
			c-10.475-4.18-15.562-12.548-15.744-23.351c-0.373-22.314-0.086-44.639-0.053-66.96c0-0.292,0.241-0.583,0.501-1.167
			C433.746,50.377,443.822,50.377,454.586,50.377z"/>
		<path d="M704.082,102.826c10.904,6.982,13.375,16.715,12.773,27.855c-0.269,4.977-0.045,9.978-0.045,15.436
			c-9.562,0-18.896,0-28.729,0c0-5.639,0.062-11.102-0.027-16.562c-0.038-2.313-0.235-4.649-0.624-6.932
			c-0.857-5.036-4.039-7.902-8.972-8.758c-3.091-0.537-6.231-0.784-9.69-1.203c0-5.793,0-11.543,0-17.844
			c2.733-0.25,5.508-0.346,8.228-0.781c8.104-1.298,12.187-7.745,9.116-14.28c-1.813-3.865-5.166-5.645-9.191-5.907
			c-4.129-0.269-8.288-0.06-13.221-0.06c0,24.114,0,48.125,0,72.457c-10.014,0-19.243,0-28.879,0c0-32.048,0-63.895,0-96.167
			c8.76,0,17.231-0.125,25.699,0.035c8.643,0.164,17.377-0.065,25.885,1.163c5.742,0.829,11.637,3.092,16.641,6.088
			c16.52,9.893,16.943,33.364,3.701,43.441C706.088,101.311,705.428,101.807,704.082,102.826z"/>
		<path d="M569.084,112.725c0-6.162,0-11.785,0-17.974c1.906-0.15,3.698-0.102,5.4-0.469c2.729-0.588,5.582-1.078,8.052-2.286
			c3.665-1.793,5.161-5.574,4.538-9.705c-0.656-4.349-3.768-7.709-8.78-8.254c-4.577-0.497-9.25-0.105-14.481-0.105
			c0,23.925,0,47.807,0,72.168c-9.777,0-18.967,0-28.547,0c0-31.768,0-63.48,0-95.509c1.031-0.161,2.131-0.48,3.23-0.48
			c13.486-0.001,26.975-0.105,40.457,0.131c9.308,0.163,17.997,2.556,25.82,7.975c13.766,9.535,15.537,31.804,2.666,42.106
			c-0.774,0.619-1.469,1.339-3.424,3.138c1.334,0.693,2.616,1.133,3.629,1.922c6.356,4.953,9.186,11.638,9.248,19.569
			c0.056,6.973,0.012,13.945,0.012,21.272c-9.611,0-18.844,0-28.715,0c0-3.886,0.002-7.651-0.002-11.419
			c-0.002-2.664,0.057-5.33-0.037-7.992c-0.301-8.573-3.326-12.015-11.734-13.318C574.148,113.145,571.85,113.008,569.084,112.725z"
			/>
		<path d="M824.84,50.435c0,12.742,0.504,25.076-0.172,37.346c-0.469,8.509-5.727,14.83-13.148,18.878
			c-4.201,2.291-8.819,3.815-13.941,5.978c0,10.762,0,22.004,0,33.588c-11.682,0-22.745,0-34.498,0c0-11.295,0-22.518,0-33.824
			c-3.275-1.004-6.012-1.682-8.628-2.672c-13.295-5.031-21.683-13.57-21.091-29.664c0.302-8.151,0.041-16.322,0.063-24.484
			c0.005-1.631,0.142-3.263,0.244-5.499c5.901,0,11.507,0,17.112,0c5.479,0,10.957,0,17,0c0.125,2.046,0.316,3.797,0.322,5.549
			c0.035,7.995-0.062,15.992,0.041,23.986c0.121,9.688,7.116,14.372,16.28,11.021c3.816-1.395,5.707-4.205,5.743-8.959
			c0.064-8.661,0.02-17.323,0.021-25.984c0-1.637,0-3.274,0-5.26C801.781,50.435,813.004,50.435,824.84,50.435z"/>
		<path d="M273.195,111.775c0,11.955,0,22.908,0,34.332c-10.483,0-20.506,0-31.052,0c-0.088-1.959-0.25-3.893-0.251-5.825
			c-0.019-19.167-0.019-38.333-0.009-57.5c0.009-16.785,7.581-26.702,23.837-31.095c2.56-0.692,5.22-1.396,7.839-1.417
			c15.821-0.131,31.645-0.065,47.859-0.065c0,7.372,0,14.614,0,22.475c-1.56,0.073-3.312,0.223-5.064,0.227
			c-10.5,0.021-21-0.009-31.5,0.031c-1.822,0.007-3.686,0.07-5.455,0.455c-4.256,0.925-5.916,2.951-6.25,7.224
			c-0.052,0.663-0.021,1.333-0.028,2c-0.081,7.259-0.081,7.262,7.351,7.264c11.667,0.003,23.333,0.001,35,0.001
			c1.803,0,3.606,0,5.76,0c0,7.431,0,14.348,0,21.895C305.42,111.775,289.693,111.775,273.195,111.775z"/>
		<path d="M341.037,50.366c10.04,0,20.104,0,30.774,0c0,1.943,0,3.717,0,5.491c0,18.309-0.019,36.617,0.008,54.926
			c0.015,9.555,2.321,12.05,12.01,12.463c6.479,0.275,12.978,0.129,19.467,0.166c1.802,0.012,3.604,0.002,5.847,0.002
			c0,7.799,0,15.143,0,22.287c-0.348,0.314-0.466,0.52-0.592,0.523c-15.116,0.545-30.291,1.41-45.169-2.091
			c-15.443-3.633-22.382-11.455-22.793-27.213c-0.563-21.622-0.127-43.27-0.096-64.907C340.494,51.552,340.79,51.09,341.037,50.366z
			"/>
		<path d="M160.12,98.544c1.21,30.044-24.162,62.058-62.243,62.036c-34.442-0.021-61.838-27.802-61.793-62.608
			c0.044-34.395,27.869-61.989,62.62-61.745C136.029,36.49,161.41,68.081,160.12,98.544z M142.931,80.23
			c-5.015-17.269-25.596-30.663-45.206-30.104C75.997,50.747,56.813,66.4,52.021,87.418c-4.924,21.598,5.29,43.525,24.938,53.84
			c18.091,9.496,42.01,5.234,53.317-7.143c-2.026,0.93-3.306,1.55-4.61,2.111c-12.874,5.543-25.325,4.653-37.154-2.816
			c-11.139-7.035-16.622-18.624-14.154-30.643c2.696-13.133,10.898-21.469,23.92-24.604c4.428-1.066,9.126-1.008,13.701-1.464
			c-10.551-4.018-21.146-3.821-32.082,0.183C93.327,56.209,123.684,57.756,142.931,80.23z"/>
	</g>
</g>
</svg>
